<?xml version="1.0" standalone="no"?>
<!DOCTYPE svg PUBLIC "-//W3C//DTD SVG 20010904//EN"
 "http://www.w3.org/TR/2001/REC-SVG-20010904/DTD/svg10.dtd">
<svg version="1.0" xmlns="http://www.w3.org/2000/svg"
 width="626.000000pt" height="417.000000pt" viewBox="0 0 626.000000 417.000000"
 preserveAspectRatio="xMidYMid meet">

<g transform="translate(0.000000,417.000000) scale(0.100000,-0.100000)"
fill="#000000" stroke="none">
<path d="M41 4163 c1 -5 1 -23 0 -41 -1 -29 -3 -32 -21 -22 -26 14 -25 2 3
-28 12 -14 16 -22 10 -18 -24 14 -33 -4 -16 -31 16 -24 16 -26 0 -38 -12 -9
-17 -27 -17 -68 l0 -56 70 -52 c39 -28 70 -54 70 -57 0 -2 -6 1 -13 7 -8 6
-17 8 -20 4 -4 -3 -7 -1 -7 5 0 7 -7 12 -15 12 -8 0 -15 -4 -15 -10 0 -5 5
-10 12 -10 6 0 9 -3 5 -6 -3 -4 -22 3 -42 15 -20 11 -38 21 -41 21 -2 0 -4
-853 -4 -1895 l0 -1895 3130 0 3130 0 0 1163 0 1164 -37 1 c-21 1 -42 8 -48
15 -5 8 -23 18 -40 24 l-30 11 28 11 c50 20 81 25 73 12 -4 -6 -1 -11 7 -11 8
0 17 -9 20 -20 3 -11 10 -20 16 -20 8 0 11 258 11 910 l0 910 -1044 0 -1044 0
4 -23 5 -22 -12 23 c-7 13 -21 22 -36 22 -24 0 -31 -14 -13 -25 6 -3 10 -11
10 -17 0 -7 -13 0 -28 15 -27 26 -33 27 -125 27 -91 0 -97 -1 -97 -21 0 -11
-4 -17 -10 -14 -6 4 -7 -6 -2 -27 9 -41 8 -93 -3 -137 -6 -27 -5 -32 5 -26 10
6 12 3 8 -13 -4 -14 -2 -19 7 -16 14 6 45 -37 45 -61 0 -9 4 -14 9 -11 5 4 6
-9 1 -29 -4 -19 -7 -36 -6 -37 0 -2 -7 5 -16 15 -10 11 -18 25 -18 33 0 8 -4
14 -9 14 -9 0 -43 85 -80 200 l-21 65 7 -94 c4 -67 3 -92 -5 -87 -6 3 -15 -2
-21 -11 -9 -16 -10 -15 -11 7 0 19 -9 31 -34 44 -27 14 -37 28 -45 63 -10 37
-15 44 -34 41 -12 -2 -27 -14 -33 -26 -6 -13 -17 -29 -23 -35 -15 -15 -14 -89
3 -134 20 -54 27 -114 17 -148 -5 -17 -10 -24 -10 -17 -1 6 -8 12 -16 12 -8 0
-15 5 -15 10 0 6 -6 10 -13 10 -8 0 -21 24 -30 58 -9 31 -25 85 -34 120 l-18
62 -84 -57 c-46 -31 -79 -59 -74 -60 10 -4 101 54 135 84 22 20 26 11 36 -83
11 -96 6 -109 -42 -111 -46 -3 -66 10 -66 43 0 15 -6 24 -16 24 -8 0 -13 4 -9
10 3 5 12 7 19 4 7 -3 18 2 25 10 7 8 21 12 33 8 14 -3 19 -1 14 6 -4 7 -14
12 -22 12 -8 0 -14 5 -14 11 0 8 -4 9 -13 0 -8 -6 -17 -8 -20 -4 -4 3 -7 -1
-7 -10 0 -10 -6 -14 -13 -11 -8 3 -20 -2 -27 -11 -10 -12 -16 -13 -28 -3 -9 7
-13 8 -9 2 3 -6 -9 -18 -30 -28 -31 -15 -35 -20 -31 -46 5 -34 1 -37 -18 -12
-13 16 -13 16 -14 -1 0 -11 -6 -17 -12 -14 -7 2 -18 -4 -23 -14 -6 -11 -15
-15 -23 -10 -8 5 13 29 70 77 45 38 89 76 99 85 28 27 132 103 168 122 19 10
59 37 90 60 31 23 85 56 121 73 l65 33 -88 0 c-56 1 -86 -3 -82 -9 3 -5 -1
-10 -9 -10 -8 0 -18 5 -21 10 -7 12 -3516 14 -3514 3z m2957 -49 c42 -8 81
-20 87 -25 11 -11 23 -12 -120 6 -65 8 -126 15 -135 16 -28 1 23 18 58 18 18
1 68 -6 110 -15z m2106 -46 c8 -13 18 -35 21 -50 6 -22 4 -28 -9 -28 -9 0 -16
-4 -16 -9 0 -5 -13 -3 -29 5 -38 19 -47 61 -17 85 28 24 33 23 50 -3z m-476
-5 c-15 -2 -42 -2 -60 0 -18 2 -6 4 27 4 33 0 48 -2 33 -4z m29 -19 c-3 -3
-12 -4 -19 -1 -8 3 -5 6 6 6 11 1 17 -2 13 -5z m-1524 -34 c38 -1 76 -25 61
-40 -6 -6 -27 -4 -59 6 -50 15 -155 14 -200 -2 -11 -4 -17 -4 -13 1 10 11 150
44 166 39 8 -2 28 -4 45 -4z m-1990 -109 c94 -50 226 -113 292 -141 66 -28
129 -60 140 -71 12 -12 -39 8 -120 47 -77 37 -183 86 -235 109 -117 51 -166
77 -227 115 -88 56 -23 30 150 -59z m303 -225 c33 -28 74 -60 89 -72 17 -12
25 -23 18 -27 -5 -3 -19 3 -31 13 -12 11 -24 20 -28 20 -7 0 -49 34 -124 103
-48 44 -51 48 -20 32 19 -10 62 -41 96 -69z m1884 -6 c0 -13 -5 -18 -15 -14
-8 4 -15 12 -15 20 0 8 7 14 15 14 8 0 15 -9 15 -20z m-2128 -119 c-2 -8 3
-11 12 -8 9 4 18 2 21 -2 9 -16 -36 -19 -71 -5 -45 19 -44 36 4 32 25 -2 36
-7 34 -17z m4408 -1 c0 -5 -5 -10 -11 -10 -5 0 -7 5 -4 10 3 6 8 10 11 10 2 0
4 -4 4 -10z m-3757 -7 c-7 -2 -19 -2 -25 0 -7 3 -2 5 12 5 14 0 19 -2 13 -5z
m82 -47 c55 -13 125 -26 157 -30 65 -7 88 -14 88 -27 0 -16 -82 -8 -164 18
-93 28 -111 25 -29 -5 32 -12 67 -28 78 -37 13 -9 2 -7 -28 6 -65 28 -71 19
-7 -10 27 -12 67 -42 89 -67 21 -24 44 -44 50 -44 6 0 11 -4 11 -9 0 -24 -24
-18 -87 20 -37 24 -105 62 -150 86 -86 46 -107 63 -76 63 14 1 13 4 -7 15 -14
8 -50 15 -80 15 l-55 2 35 13 c49 19 62 18 175 -9z m-662 7 c-7 -2 -21 -2 -30
0 -10 3 -4 5 12 5 17 0 24 -2 18 -5z m346 -102 c51 -7 76 -15 86 -28 7 -10 17
-15 21 -10 4 4 2 7 -4 7 -7 0 -12 7 -12 15 0 14 20 19 65 16 37 -3 135 -46
131 -57 -2 -6 1 -17 7 -24 9 -10 9 -11 -1 -6 -7 4 -29 9 -50 11 -20 2 -61 6
-89 9 -57 6 -59 5 -42 -43 7 -20 16 -30 25 -27 28 11 114 -27 214 -94 30 -20
67 -40 81 -43 15 -4 61 -38 102 -77 41 -38 79 -70 83 -70 5 0 -25 35 -66 77
-70 73 -67 71 20 -6 21 -19 45 -31 63 -31 28 0 52 -30 29 -38 -16 -5 -15 -22
3 -42 13 -14 13 -17 0 -17 -8 0 -16 6 -19 14 -3 7 -12 13 -21 13 -8 0 -15 5
-15 11 0 6 -7 9 -15 5 -8 -3 -14 0 -12 6 1 5 -6 12 -15 13 -9 2 -38 18 -64 36
-26 17 -44 26 -40 18 5 -9 2 -8 -6 2 -14 16 -143 111 -168 123 -8 4 1 -5 20
-20 45 -36 132 -125 190 -194 l45 -55 -76 67 c-83 71 -114 92 -128 83 -5 -3
-21 -1 -36 5 -19 7 -24 7 -19 -2 5 -8 0 -9 -14 -6 -41 11 -22 -2 68 -47 50
-25 88 -50 85 -56 -4 -5 -3 -9 2 -8 22 4 34 -2 27 -13 -4 -7 -4 -10 1 -6 11
10 65 -30 65 -48 0 -8 5 -13 11 -11 6 1 14 -4 16 -11 3 -8 -1 -10 -14 -6 -11
5 -6 -6 17 -31 24 -26 1 -12 -75 45 -60 46 -147 101 -192 122 -61 29 -83 44
-83 58 0 10 -5 22 -12 26 -8 5 -9 2 -5 -10 4 -10 7 -24 7 -32 0 -7 33 -29 73
-47 39 -19 81 -42 92 -52 19 -16 19 -16 -8 0 -16 9 -35 14 -43 11 -13 -5 -13
-10 1 -36 8 -16 20 -30 26 -30 11 0 39 -24 39 -34 0 -2 -19 6 -42 19 -32 17
-49 21 -65 14 -13 -4 -23 -12 -23 -17 0 -25 157 -151 281 -226 42 -25 82 -52
88 -59 18 -23 -19 -17 -67 11 -24 13 -45 23 -47 20 -2 -2 21 -23 51 -47 30
-24 53 -45 51 -48 -3 -2 -31 10 -63 28 -42 24 -55 28 -44 14 9 -11 -19 0 -75
30 -131 70 -148 83 -142 112 2 13 0 26 -4 29 -5 3 -9 15 -9 27 0 12 -5 29 -10
37 -7 11 -9 2 -5 -30 11 -84 28 -160 36 -160 5 0 6 7 3 15 -12 29 11 14 43
-29 36 -50 130 -121 135 -104 3 7 7 5 11 -5 11 -28 -7 -27 -57 4 -26 17 -51
28 -54 25 -3 -3 0 -6 6 -6 22 0 172 -152 172 -173 0 -18 -6 -15 -38 19 -26 26
-35 42 -28 47 7 6 5 7 -6 4 -10 -4 -35 8 -60 26 -24 18 -56 41 -71 50 -15 10
-25 22 -22 27 3 5 0 12 -6 15 -5 4 -8 13 -5 21 3 7 1 16 -5 20 -6 3 -8 12 -5
20 3 8 -1 14 -8 14 -10 0 -11 -11 -4 -52 5 -29 13 -78 18 -108 4 -30 13 -68
19 -84 10 -24 9 -27 -2 -18 -8 7 -17 9 -20 5 -4 -3 -7 -1 -7 6 0 7 -4 10 -9 7
-5 -3 -14 1 -21 9 -9 11 -8 20 10 45 16 22 18 30 7 30 -13 0 -40 42 -41 65 -2
26 -40 10 -122 -48 -49 -36 -90 -61 -92 -56 -2 5 -10 9 -18 9 -8 0 -14 3 -14
6 0 12 53 69 62 66 5 -1 7 2 4 6 -5 9 122 141 169 176 11 9 16 16 10 16 -5 0
-48 -32 -94 -70 -47 -39 -91 -70 -99 -70 -12 0 -12 4 3 20 10 11 16 23 12 26
-3 3 5 18 18 32 22 24 25 50 4 37 -16 -11 -10 7 8 20 15 11 15 15 4 29 -11 13
-17 14 -30 4 -9 -7 -3 2 13 20 17 18 28 32 25 32 -2 0 -19 -4 -37 -9 -26 -8
-34 -7 -39 4 -3 8 -10 12 -17 9 -41 -20 76 70 125 96 33 17 58 34 55 37 -6 6
-168 -79 -211 -112 -41 -30 -137 -75 -162 -75 -11 0 -38 -7 -59 -16 l-38 -16
16 24 c17 26 238 179 249 172 4 -2 23 8 41 24 18 15 51 41 73 56 82 59 86 86
18 116 -28 12 -56 18 -68 15 -44 -14 -95 -22 -95 -15 0 4 21 22 48 39 26 17
43 31 39 31 -10 0 -157 -78 -174 -92 -9 -7 -13 -7 -13 1 0 9 -5 9 -21 0 -15
-7 -24 -8 -32 0 -7 7 -2 13 17 21 15 5 32 8 37 4 5 -3 9 1 9 9 0 8 14 18 33
22 17 4 26 9 20 12 -10 3 -9 8 3 20 19 20 11 28 -14 14 -12 -6 -28 -11 -38
-11 -14 0 -15 2 -3 17 12 15 12 16 -3 10 -10 -3 -18 -4 -18 -1 0 5 66 36 198
94 28 13 52 27 52 32 0 22 -32 68 -48 68 -15 0 -15 2 -2 10 10 7 -12 10 -72
10 -52 0 -88 4 -88 10 0 6 10 10 22 10 12 0 19 3 16 6 -13 13 -66 12 -117 -2
-29 -8 -55 -13 -58 -10 -7 7 150 54 167 50 9 -2 49 -8 89 -13z m379 -60 c31
-21 66 -49 77 -62 l20 -24 -22 19 c-13 10 -34 20 -49 22 -15 1 -45 22 -72 50
-54 53 -37 52 46 -5z m-594 -15 c-50 -22 -82 -27 -39 -7 22 11 47 20 55 20 8
0 1 -6 -16 -13z m852 -153 c-7 -8 -56 40 -50 49 3 4 0 8 -5 8 -6 0 -11 6 -11
13 1 6 16 -6 35 -27 19 -22 33 -41 31 -43z m2259 -43 c10 -11 13 -20 7 -20 -6
0 -16 9 -22 20 -6 11 -9 20 -7 20 2 0 12 -9 22 -20z m1579 -32 c-91 -100 -170
-173 -235 -217 -46 -32 -57 -37 -40 -18 l24 26 -24 5 c-13 4 -60 10 -104 15
l-80 8 123 2 c117 1 123 2 144 26 12 14 28 23 36 20 7 -2 11 -1 8 4 -3 5 6 21
21 37 14 16 36 46 47 69 17 33 30 43 71 57 28 9 52 17 54 18 2 0 -18 -24 -45
-52z m-134 -203 c-7 -8 -24 -15 -37 -15 -22 0 -24 2 -13 15 7 8 24 15 37 15
22 0 24 -2 13 -15z m-3907 -58 c-3 -6 -1 -7 6 -3 7 5 15 -4 22 -23 6 -17 18
-31 26 -31 10 0 13 -6 9 -16 -3 -8 -2 -13 3 -9 14 8 51 -44 44 -62 -4 -11 -2
-14 5 -9 7 4 12 1 12 -7 0 -7 12 -24 26 -38 14 -13 35 -37 47 -54 12 -16 -3
-5 -33 26 -30 30 -93 91 -140 134 -47 44 -78 74 -68 67 23 -18 31 7 9 33 -15
19 -15 19 3 5 18 -14 19 -13 13 4 -6 16 -5 17 8 6 8 -7 12 -17 8 -23z m3082
-1 c30 -13 60 -29 67 -35 38 -32 206 -149 221 -154 13 -5 17 -2 15 11 -2 9
-10 20 -18 24 -12 5 -12 7 3 7 23 1 57 -34 57 -59 0 -11 5 -20 10 -20 15 0 12
-34 -6 -56 -13 -16 -15 -16 -10 -2 3 10 1 20 -4 23 -6 4 -10 2 -10 -3 0 -6 -8
-8 -19 -5 -10 3 -22 0 -25 -6 -4 -5 -14 -7 -22 -4 -9 3 -20 0 -25 -8 -8 -12
-12 -11 -24 5 -8 11 -21 16 -30 13 -8 -4 -15 -3 -15 1 0 4 -27 25 -60 46 -59
39 -75 54 -45 42 31 -12 13 4 -27 25 -24 12 -64 37 -89 55 -26 19 -54 34 -63
34 -19 0 -21 16 -3 24 10 5 10 7 0 12 -7 3 -13 12 -13 20 0 8 -6 14 -12 14 -7
0 -4 7 7 16 25 19 68 13 140 -20z m635 -22 c-8 -8 -23 -20 -34 -25 -13 -6 -10
0 9 15 34 29 43 33 25 10z m-980 -94 c0 -5 -4 -10 -10 -10 -5 0 -10 5 -10 10
0 6 5 10 10 10 6 0 10 -4 10 -10z m262 -19 c70 -30 218 -157 218 -187 0 -5
-14 7 -30 26 -16 19 -30 32 -30 28 0 -3 -19 11 -42 32 -23 22 -45 37 -50 34
-4 -3 -8 0 -8 5 0 6 -8 11 -17 11 -13 -1 -9 -9 17 -31 21 -18 27 -27 15 -23
l-20 7 20 -23 20 -24 -40 24 c-68 41 -140 90 -133 90 14 0 64 -25 94 -47 41
-30 53 -29 24 2 -13 14 -20 25 -16 25 12 0 -18 27 -55 49 -42 26 -25 27 33 2z
m-252 -21 c0 -5 -2 -10 -4 -10 -3 0 -8 5 -11 10 -3 6 -1 10 4 10 6 0 11 -4 11
-10z m-4 -42 c-3 -13 -3 -17 0 -10 11 23 26 12 20 -15 -3 -16 -3 -23 0 -16 4
10 8 10 18 0 11 -9 9 -19 -11 -50 -13 -21 -22 -41 -19 -46 3 -4 -2 -27 -10
-52 l-14 -44 5 40 c2 22 5 55 5 73 0 20 4 31 10 27 13 -8 13 1 -1 27 -9 16
-13 18 -20 7 -7 -12 -7 23 0 74 1 4 6 7 12 7 6 0 8 -10 5 -22z m1288 -6 c-35
-24 -117 -169 -111 -194 4 -14 2 -16 -7 -9 -8 7 -19 -5 -40 -45 -16 -30 -32
-54 -37 -54 -13 0 -11 9 9 38 10 15 40 68 66 117 59 110 92 155 114 155 10 0
13 -3 6 -8z m-306 -24 c-3 -8 -33 -16 -74 -21 -76 -8 -109 -16 -169 -42 -34
-14 -38 -14 -25 -1 17 17 200 74 243 75 19 1 27 -3 25 -11z m-3786 -42 c24
-18 42 -38 41 -45 -2 -6 3 -11 11 -11 8 0 17 -7 20 -16 6 -15 4 -15 -16 0 -13
9 -31 19 -40 22 -9 3 -19 13 -23 21 -4 13 -3 14 10 3 9 -7 18 -10 21 -7 4 3
-15 20 -42 36 -26 17 -43 31 -37 31 6 0 31 -15 55 -34z m1863 -14 c-6 -7 -35
18 -35 31 0 5 9 2 20 -8 11 -10 18 -20 15 -23z m1220 8 c3 -6 -1 -7 -9 -4 -18
7 -21 14 -7 14 6 0 13 -4 16 -10z m-189 -85 c3 -19 10 -35 15 -35 5 0 9 -13 9
-28 0 -16 7 -37 15 -48 8 -10 14 -30 14 -44 -1 -17 -3 -19 -6 -7 -2 9 -9 15
-14 12 -5 -4 -10 6 -10 22 -1 17 -3 21 -6 11 -2 -10 -9 -18 -14 -18 -12 0 -59
49 -60 64 -4 34 4 124 13 140 9 17 11 16 24 -8 7 -15 16 -42 20 -61z m556 -27
c-9 -9 -12 -8 -12 6 0 9 -4 14 -10 11 -11 -7 -14 8 -3 19 4 3 14 0 22 -9 12
-12 13 -17 3 -27z m-3423 -54 c61 -45 163 -151 183 -189 6 -11 -15 7 -48 41
-65 67 -178 154 -200 154 -8 0 -14 5 -14 11 0 6 8 8 18 5 14 -5 14 -4 -2 9
-11 8 -15 15 -9 15 6 0 38 -21 72 -46z m3326 26 c3 -5 2 -10 -4 -10 -5 0 -13
5 -16 10 -3 6 -2 10 4 10 5 0 13 -4 16 -10z m500 -40 c-3 -5 -10 -10 -16 -10
-5 0 -9 5 -9 10 0 6 7 10 16 10 8 0 12 -4 9 -10z m-3836 -27 c110 -83 195
-172 179 -189 -3 -2 -40 33 -84 79 -43 45 -94 94 -113 109 -44 36 -29 36 18 1z
m3784 -10 c-13 -2 -35 -2 -50 0 -16 2 -5 4 22 4 28 0 40 -2 28 -4z m-443 -18
c0 -1 -12 -12 -27 -26 -14 -13 -24 -19 -21 -14 3 6 7 17 11 26 3 9 12 16 21
16 9 0 16 -1 16 -2z m333 -12 c-2 -8 9 -13 30 -14 30 -1 31 -1 7 -9 -14 -4
-41 -8 -61 -9 -21 -1 -87 -14 -148 -30 -80 -21 -108 -25 -100 -15 10 12 9 13
-5 8 -28 -11 -18 11 14 30 40 23 82 35 150 42 30 3 57 8 60 10 10 10 55 -2 53
-13z m-3743 -33 c0 -5 -5 -10 -11 -10 -5 0 -7 5 -4 10 3 6 8 10 11 10 2 0 4
-4 4 -10z m107 -46 c30 -26 51 -49 48 -52 -3 -4 -9 -2 -13 3 -4 6 -28 29 -54
53 -64 57 -49 54 19 -4z m3888 27 c3 -5 1 -12 -5 -16 -5 -3 -10 1 -10 9 0 18
6 21 15 7z m-2480 -61 c13 -6 15 -9 5 -9 -8 0 -22 4 -30 9 -18 12 -2 12 25 0z
m0 -30 c17 -7 16 -9 -10 -9 -16 0 -37 4 -45 9 -12 8 -10 10 10 9 14 0 34 -4
45 -9z m-1335 -10 c0 -5 -2 -10 -4 -10 -3 0 -8 5 -11 10 -3 6 -1 10 4 10 6 0
11 -4 11 -10z m1440 -21 c19 -11 26 -17 15 -14 -11 4 -35 11 -52 17 -18 5 -33
11 -33 13 0 11 38 2 70 -16z m2410 7 c-8 -8 -21 -16 -29 -18 -7 -2 -25 -13
-39 -25 -28 -25 -54 -31 -46 -9 5 13 49 39 69 41 6 0 19 6 30 13 27 16 32 15
15 -2z m-632 -23 c-10 -2 -26 -2 -35 0 -10 3 -2 5 17 5 19 0 27 -2 18 -5z
m-2351 -39 c-3 -3 -12 -4 -19 -1 -8 3 -5 6 6 6 11 1 17 -2 13 -5z m2423 -3 c0
-5 8 -12 18 -15 9 -3 -5 -3 -32 -1 -27 3 -72 6 -100 6 l-51 2 40 7 c60 11 125
11 125 1z m335 -61 c-10 -22 -20 -38 -22 -36 -2 2 4 22 14 44 9 23 19 39 22
37 2 -3 -4 -23 -14 -45z m0 -130 c10 -11 14 -20 8 -20 -5 0 -18 9 -28 20 -10
11 -14 20 -8 20 5 0 18 -9 28 -20z m-328 4 c-3 -3 -12 -4 -19 -1 -8 3 -5 6 6
6 11 1 17 -2 13 -5z m-82 -19 c-22 -8 -49 -13 -60 -13 -11 0 0 6 25 13 59 17
87 17 35 0z m505 -27 c0 -6 -7 -5 -15 2 -8 7 -15 17 -15 22 0 6 7 5 15 -2 8
-7 15 -17 15 -22z m-593 6 c-3 -3 -12 -4 -19 -1 -8 3 -5 6 6 6 11 1 17 -2 13
-5z m428 -24 c3 -6 -1 -7 -9 -4 -18 7 -21 14 -7 14 6 0 13 -4 16 -10z m190
-41 l30 -33 -42 33 c-48 36 -67 59 -37 43 11 -6 33 -25 49 -43z m-3445 37 c0
-3 -4 -8 -10 -11 -5 -3 -10 -1 -10 4 0 6 5 11 10 11 6 0 10 -2 10 -4z m2963
-23 c-7 -2 -19 -2 -25 0 -7 3 -2 5 12 5 14 0 19 -2 13 -5z m10 -55 c-35 -17
-28 -28 16 -28 79 0 48 -16 -52 -28 -56 -6 -128 -20 -159 -30 -32 -11 -58 -18
-58 -16 0 6 145 77 195 95 55 19 94 24 58 7z m323 -109 c4 -8 1 -8 -14 0 -12
6 -24 16 -28 22 -4 8 -1 8 14 0 12 -6 24 -16 28 -22z m-4326 -45 c0 -2 -9 -4
-20 -4 -11 0 -20 4 -20 9 0 5 9 7 20 4 11 -3 20 -7 20 -9z m-667 -104 c-11
-11 -83 -40 -83 -34 0 9 24 29 50 40 26 12 48 8 33 -6z m4224 -146 c-3 -3 -12
-4 -19 -1 -8 3 -5 6 6 6 11 1 17 -2 13 -5z m-3852 -37 c-11 -8 -42 -19 -70
-26 -27 -7 -54 -16 -60 -20 -5 -5 -21 -11 -35 -14 -24 -6 -23 -5 5 18 19 16
43 24 66 25 20 0 42 7 49 15 7 8 24 15 38 15 25 0 26 -1 7 -13z m2688 -143
c51 -25 97 -50 102 -56 6 -6 -3 -4 -20 5 -48 23 -137 63 -180 80 -30 12 -34
16 -17 16 13 1 65 -20 115 -45z m-10 -45 c18 -8 16 -9 -13 -4 -19 3 -53 9 -75
15 -38 9 -38 9 13 4 29 -2 62 -9 75 -15z m-26 -56 c16 -7 7 -23 -13 -23 -8 0
-13 4 -10 9 3 5 -8 14 -24 21 -17 7 -33 17 -36 22 -3 5 11 2 33 -7 21 -9 44
-19 50 -22z m-2407 -3 c0 -5 10 -10 23 -10 23 0 86 -44 77 -54 -5 -5 -18 1
-69 32 -19 11 -21 10 -21 -7 0 -11 -4 -23 -10 -26 -5 -3 -10 2 -10 12 0 10 -3
28 -6 41 -4 13 -2 22 5 22 6 0 11 -4 11 -10z m-870 -396 c0 -8 -4 -12 -10 -9
-5 3 -10 13 -10 21 0 8 5 12 10 9 6 -3 10 -13 10 -21z m1155 -454 c0 -18 -34
-15 -55 6 -13 12 -10 14 20 11 23 -2 35 -8 35 -17z m39 4 c4 -10 1 -14 -6 -12
-15 5 -23 28 -10 28 5 0 13 -7 16 -16z m-34 -130 c0 -2 -7 -4 -15 -4 -8 0 -15
4 -15 10 0 5 7 7 15 4 8 -4 15 -8 15 -10z m-620 -4 c0 -5 -5 -10 -11 -10 -5 0
-7 5 -4 10 3 6 8 10 11 10 2 0 4 -4 4 -10z"/>
<path d="M1898 3483 c7 -3 16 -2 19 1 4 3 -2 6 -13 5 -11 0 -14 -3 -6 -6z"/>
<path d="M1790 3142 c0 -11 88 -57 95 -50 4 3 -13 18 -38 32 -46 27 -57 31
-57 18z"/>
<path d="M1930 2995 c0 -2 18 -14 40 -25 22 -11 40 -18 40 -15 0 2 -18 14 -40
25 -22 11 -40 18 -40 15z"/>
<path d="M1880 2940 c13 -23 20 -26 20 -6 0 8 -7 16 -15 20 -13 4 -14 2 -5
-14z"/>
<path d="M1645 2750 c-3 -6 1 -7 9 -4 18 7 21 14 7 14 -6 0 -13 -4 -16 -10z"/>
<path d="M1795 2573 c-42 -46 -53 -71 -18 -42 10 9 27 14 39 14 11 -1 21 4 21
11 0 10 -5 10 -21 2 -18 -10 -17 -6 7 25 39 52 25 46 -28 -10z"/>
<path d="M1835 2510 c-3 -5 1 -10 9 -10 9 0 16 5 16 10 0 6 -4 10 -9 10 -6 0
-13 -4 -16 -10z"/>
<path d="M1990 2457 c0 -3 17 -17 37 -33 20 -15 33 -23 29 -16 -8 13 -66 56
-66 49z"/>
<path d="M1630 2401 c0 -17 18 -21 24 -6 3 9 0 15 -9 15 -8 0 -15 -4 -15 -9z"/>
<path d="M1890 2365 c-7 -9 -10 -18 -7 -21 3 -3 10 4 17 15 13 25 8 27 -10 6z"/>
<path d="M5446 2657 c3 -10 9 -15 12 -12 3 3 0 11 -7 18 -10 9 -11 8 -5 -6z"/>
<path d="M5440 2600 c0 -5 5 -10 11 -10 5 0 7 5 4 10 -3 6 -8 10 -11 10 -2 0
-4 -4 -4 -10z"/>
<path d="M3516 3968 c3 -4 9 -8 15 -8 5 0 9 4 9 8 0 5 -7 9 -15 9 -8 0 -12 -4
-9 -9z"/>
<path d="M30 3810 c0 -5 5 -10 10 -10 6 0 10 5 10 10 0 6 -4 10 -10 10 -5 0
-10 -4 -10 -10z"/>
</g>
</svg>
